<svg width="29" height="29" viewBox="0 0 29 29" fill="none" xmlns="http://www.w3.org/2000/svg">
<path d="M14.9953 21.012L19.6647 16.3427L18.0304 14.7084L16.1626 16.5761V11.6733H13.828V16.5761L11.9602 14.7084L10.326 16.3427L14.9953 21.012ZM6.82394 9.33865V22.1794H23.1667V9.33865H6.82394ZM6.82394 24.5141C6.1819 24.5141 5.62741 24.2903 5.16048 23.8428C4.713 23.3759 4.48926 22.8214 4.48926 22.1794V7.61682C4.48926 7.34444 4.52817 7.08179 4.60599 6.82887C4.70327 6.57595 4.83946 6.34248 5.01456 6.12847L6.47373 4.34827C6.68775 4.07589 6.9504 3.87161 7.26169 3.73542C7.59243 3.57978 7.93291 3.50195 8.28311 3.50195H21.7075C22.0577 3.50195 22.3885 3.57978 22.6997 3.73542C23.0305 3.87161 23.3029 4.07589 23.5169 4.34827L24.9761 6.12847C25.1512 6.34248 25.2776 6.57595 25.3554 6.82887C25.4527 7.08179 25.5014 7.34444 25.5014 7.61682V22.1794C25.5014 22.8214 25.2679 23.3759 24.801 23.8428C24.3535 24.2903 23.8087 24.5141 23.1667 24.5141H6.82394ZM7.29087 7.00397H22.6997L21.7075 5.83663H8.28311L7.29087 7.00397Z" fill="#033C7C"/>
</svg>
